<svg viewBox="0 0 2560 1440"
     xmlns="http://www.w3.org/2000/svg"
     preserveAspectRatio="xMidYMid slice"><filter id="a" color-interpolation-filters="sRGB" filterUnits="userSpaceOnUse" height="3419.87" width="3202.09" x="-156.176" y="-405.646"><feFlood flood-opacity="0" result="BackgroundImageFix"/><feBlend in="SourceGraphic" in2="BackgroundImageFix" mode="normal" result="shape"/><feGaussianBlur result="effect1_foregroundBlur_2426_741" stdDeviation="400"/></filter><filter id="b" color-interpolation-filters="sRGB" filterUnits="userSpaceOnUse" height="2596.8" width="2603.63" x="506.293" y="-845.701"><feFlood flood-opacity="0" result="BackgroundImageFix"/><feBlend in="SourceGraphic" in2="BackgroundImageFix" mode="normal" result="shape"/><feGaussianBlur result="effect1_foregroundBlur_2426_741" stdDeviation="250"/></filter><filter id="c" color-interpolation-filters="sRGB" filterUnits="userSpaceOnUse" height="3558.21" width="3569.16" x="447.557" y="-2354.83"><feFlood flood-opacity="0" result="BackgroundImageFix"/><feBlend in="SourceGraphic" in2="BackgroundImageFix" mode="normal" result="shape"/><feGaussianBlur result="effect1_foregroundBlur_2426_741" stdDeviation="250"/></filter><filter id="d" color-interpolation-filters="sRGB" filterUnits="userSpaceOnUse" height="2240.77" width="2461.03" x="-85.4043" y="-1675.64"><feFlood flood-opacity="0" result="BackgroundImageFix"/><feBlend in="SourceGraphic" in2="BackgroundImageFix" mode="normal" result="shape"/><feGaussianBlur result="effect1_foregroundBlur_2426_741" stdDeviation="160"/></filter><linearGradient id="e" gradientUnits="userSpaceOnUse" x1="2613" x2=".000079" y1="-.000031" y2="1440"><stop offset="0" stop-color="#6b57ff"/><stop offset=".972687"/></linearGradient><clipPath id="f"><path d="m0 0h2560v1440h-2560z"/></clipPath><g clip-path="url(#f)"><path d="m0 0h2560v1440h-2560z" fill="url(#e)"/><g filter="url(#a)"><ellipse cx="1444.87" cy="1304.29" fill="#6b57ff" rx="980.275" ry="712.958" transform="matrix(.54278019 .83987479 -.83987479 .54278019 1756.06347 -617.162665)"/></g><g filter="url(#b)"><ellipse cx="1808.11" cy="452.698" fill="#fe2857" rx="838.102" ry="760.206" transform="matrix(.72241827 .69145632 -.69145632 .72241827 814.919193 -1124.568392)"/></g><g filter="url(#c)"><ellipse cx="2232.14" cy="-575.727" fill="#fdb60d" rx="1342.71" ry="1217.92" transform="matrix(.72241827 .69145632 -.69145632 .72241827 221.511208 -1703.238605)"/></g><g filter="url(#d)"><ellipse cx="1145.11" cy="-555.252" fill="#6b57ff" rx="980.275" ry="712.958" transform="matrix(.84126177 .540628 -.540628 .84126177 -118.412043 -707.218254)"/></g></g></svg>