<?xml version="1.0" encoding="UTF-8" standalone="no"?>
<!-- Created with Inkscape (http://www.inkscape.org/) -->

<svg
        version="1.1"
        id="svg1"
        width="1024"
        height="1024"
        viewBox="0 0 1024 1024"
        xmlns:xlink="http://www.w3.org/1999/xlink"
        xmlns="http://www.w3.org/2000/svg"
        xmlns:svg="http://www.w3.org/2000/svg">
    <defs
            id="defs1">
        <linearGradient
                id="linearGradient14">
            <stop
                    style="stop-color:#ffa91a;stop-opacity:1;"
                    offset="0.08389716"
                    id="stop11" />
            <stop
                    style="stop-color:#ff335a;stop-opacity:1;"
                    offset="0.38362652"
                    id="stop12" />
            <stop
                    style="stop-color:#af00ff;stop-opacity:1;"
                    offset="0.69113672"
                    id="stop13" />
            <stop
                    style="stop-color:#5600ff;stop-opacity:1;"
                    offset="1"
                    id="stop14" />
        </linearGradient>
        <linearGradient
                xlink:href="#linearGradient14"
                id="linearGradient8"
                x1="58.46209"
                y1="-160.82309"
                x2="1114.1292"
                y2="333.66876"
                gradientUnits="userSpaceOnUse" />
    </defs>
    <path
            style="display:inline;fill:#0f0f0f;fill-opacity:1;stroke-width:0;stroke-linecap:square;paint-order:stroke markers fill"
            d="M 0,160 1.3117412e-4,475.00447 1023.9999,472.56856 1024,159.87511 853.47687,44.06984 173.10682,43.669109 Z"
            id="path1" />
    <path
            id="rect3"
            style="display:inline;fill:#ffffff;fill-opacity:1;stroke-width:0;stroke-linecap:square;paint-order:stroke markers fill"
            d="M -3.5732999e-7,352 V 896 A 128,128 0 0 0 128,1024 H 896 A 128,128 0 0 0 1024,896 V 352 a 32,32 0 0 0 -32,-32 h -64 a 32,32 0 0 0 -32,32 v 32 a 48,48 0 0 1 -48,48 48,48 0 0 1 -48,-48 V 352 A 32,32 0 0 0 768,320 H 256 a 32,32 0 0 0 -32,32 v 32 a 48,48 0 0 1 -48,48 48,48 0 0 1 -48,-48 V 352 A 32,32 0 0 0 96,320 H 32 A 32,32 0 0 0 -3.5732999e-7,352 Z" />
    <path
            id="rect1"
            style="display:inline;fill:url(#linearGradient8);fill-opacity:1;stroke-width:0;stroke-linecap:square;paint-order:stroke markers fill"
            d="m -3.5732999e-7,128 v 64 A 32,32 0 0 0 32,224 h 64 a 32,32 0 0 0 32,-32 v -32 a 48,48 0 0 1 48,-48 48,48 0 0 1 48,48 v 32 a 32,32 0 0 0 32,32 h 512 a 32,32 0 0 0 32,-32 v -32 a 48,48 0 0 1 48,-48 48,48 0 0 1 48,48 v 32 a 32,32 0 0 0 32,32 h 64 a 32,32 0 0 0 32,-32 V 128 A 128,128 0 0 0 896,-3.5732999e-7 H 128 A 128,128 0 0 0 -3.5732999e-7,128 Z" />
    <path
            style="font-weight:900;font-size:521.699px;line-height:1.1;font-family:Inter;-inkscape-font-specification:'Inter Heavy';letter-spacing:0px;fill:#0f0f0f;fill-opacity:1;stroke-width:0;stroke-linecap:square;paint-order:stroke markers fill"
            d="m 306.33597,914.82031 c -41.60157,0 -75.39062,-7.42188 -101.36719,-22.26562 -25.97655,-14.84376 -45.11717,-34.1797 -57.42186,-58.00782 -9.34192,-18.53314 -15.08036,-37.9962 -17.21535,-58.3892 -1.05771,-10.103 7.28988,-18.36859 17.4527,-18.36859 h 77.45497 c 10.16283,0 18.11908,8.33894 20.06773,18.29712 1.21812,6.22492 3.10409,11.94229 5.65791,17.15209 5.07812,9.96094 12.20703,17.57812 21.38671,22.85156 9.375,5.27344 20.50781,7.91015 33.39844,7.91015 11.71874,0 21.97266,-2.05078 30.76171,-6.15234 8.98438,-4.10156 15.91797,-9.76562 20.80078,-16.99219 5.07812,-7.42187 7.61718,-15.8203 7.61718,-25.19531 0,-9.76562 -2.73437,-18.26171 -8.20312,-25.48828 -5.46875,-7.22656 -13.18359,-12.79296 -23.14453,-16.69921 -9.96093,-4.10156 -21.77735,-6.15234 -35.44922,-6.15234 H 274.34676 A 18.401414,18.401414 0 0 1 255.94535,708.91891 V 663.6905 a 18.401414,18.401414 0 0 1 18.40141,-18.40141 h 23.78607 c 13.08594,0 24.21875,-1.75782 33.39844,-5.27345 9.37501,-3.71093 16.50391,-8.88672 21.38671,-15.52734 5.07814,-6.83593 7.6172,-14.9414 7.6172,-24.3164 0,-9.375 -2.34375,-17.67578 -7.03125,-24.90233 -4.49219,-7.22657 -10.74219,-12.89063 -18.75,-16.99219 -7.8125,-4.10157 -16.89453,-6.15235 -27.24609,-6.15235 -10.74219,0 -20.41016,2.2461 -29.00391,6.73828 -8.39844,4.49219 -15.03906,10.74219 -19.92187,18.75 -1.86416,3.05723 -3.37248,6.29952 -4.52494,9.72684 -3.22484,9.59035 -11.03787,18.10519 -21.20069,18.10519 h -76.86904 c -10.16282,0 -18.54099,-8.27698 -17.29188,-18.35625 2.41761,-19.50792 8.78605,-37.4126 19.10531,-53.71406 13.47656,-21.28906 32.91016,-38.08592 58.30077,-50.39062 25.39063,-12.5 55.85937,-18.74999 91.40625,-18.74999 32.22655,0 60.74218,5.17578 85.54686,15.52734 24.80468,10.35156 44.14062,24.60936 58.00781,42.77344 14.0625,18.16405 21.09375,39.16015 21.09375,62.98827 0,26.5625 -8.39844,48.04686 -25.19532,64.45311 -16.60156,16.21094 -37.30468,25.78125 -62.10936,28.71094 v 0.87891 c 21.87499,2.14843 40.23437,8.30077 55.07812,18.45703 15.03906,10.15624 26.36718,22.85155 33.98437,38.08592 7.81249,15.03906 11.71874,31.25 11.71874,48.63281 0,24.80468 -7.51953,47.07032 -22.55858,66.79687 -15.03906,19.53125 -36.03515,34.96093 -62.98828,46.28906 -26.75781,11.32813 -58.0078,16.99219 -93.74998,16.99219 z m 395.50777,0 c -40.23437,0 -74.80468,-9.08203 -103.71092,-27.24609 -28.71094,-18.16406 -50.78125,-44.04297 -66.21094,-77.63672 -15.23437,-33.59375 -22.85155,-73.6328 -22.85155,-120.11717 0,-46.67969 7.61718,-86.81639 22.85155,-120.41014 15.42969,-33.78906 37.5,-59.76562 66.21094,-77.92968 28.90624,-18.16406 63.47655,-27.24609 103.71092,-27.24609 40.42969,0 74.99999,9.08203 103.71092,27.24609 28.71094,18.16406 50.6836,44.14062 65.91798,77.92968 15.42969,33.59375 23.14453,73.73045 23.14453,120.41014 0,46.48437 -7.71484,86.62109 -23.14453,120.41015 -15.23438,33.59374 -37.20704,59.47264 -65.91798,77.6367 -28.71093,17.96875 -63.28123,26.95313 -103.71092,26.95313 z m 0,-93.75 c 16.21095,0 30.07812,-5.27343 41.60156,-15.8203 11.71875,-10.54688 20.70312,-25.58594 26.95313,-45.11719 6.24999,-19.72656 9.37499,-43.16406 9.37499,-70.31249 0,-27.34375 -3.125,-50.78124 -9.37499,-70.31249 -6.25001,-19.72656 -15.23438,-34.86328 -26.95313,-45.41016 -11.52344,-10.74218 -25.39061,-16.11328 -41.60156,-16.11328 -16.01562,0 -29.88282,5.3711 -41.60156,16.11328 -11.71875,10.54688 -20.70312,25.6836 -26.95312,45.41016 -6.25,19.53125 -9.375,42.96874 -9.375,70.31249 0,27.14843 3.125,50.58593 9.375,70.31249 6.25,19.53125 15.23437,34.57031 26.95312,45.11719 11.71874,10.54687 25.58594,15.8203 41.60156,15.8203 z"
            id="path12"
            aria-label="30" />
</svg>
